<svg height="32pt" preserveAspectRatio="xMidYMid meet" viewBox="0 0 32 32" width="32pt" xmlns="http://www.w3.org/2000/svg"><g transform="matrix(.1 0 0 -.1 0 32)"><path d="m150 305c0-8 5-15 10-15 6 0 10 7 10 15s-4 15-10 15c-5 0-10-7-10-15z"/><path d="m110 270c0-29 1-30 50-30s50 1 50 30c0 22-5 30-17 29-11 0-13-3-5-6 6-2 12-13 12-24 0-16-7-19-40-19s-40 3-40 19c0 11 6 22 13 24 7 3 5 6-5 6-13 1-18-7-18-29z"/><path d="m40 140v-140h120 120v140 140l-27-1c-24-2-25-2-5-6 21-4 22-8 22-134v-129h-110-110v129c0 126 1 130 23 134 19 4 18 4-5 6l-28 1z"/><path d="m70 140v-110h90 90v110c0 61-3 110-7 110-5 0-7-47-5-105l3-105h-81-81l3 105c2 58 0 105-4 105-5 0-8-49-8-110z"/><path d="m110 199c0-5 5-7 10-4 6 3 10 8 10 11 0 2-4 4-10 4-5 0-10-5-10-11z"/><path d="m168 193c12-2 30-2 40 0 9 3-1 5-23 4-22 0-30-2-17-4z"/><path d="m110 159c0-5 5-7 10-4 6 3 10 8 10 11 0 2-4 4-10 4-5 0-10-5-10-11z"/><path d="m168 163c12-2 30-2 40 0 9 3-1 5-23 4-22 0-30-2-17-4z"/><path d="m117 133c-4-3-7-11-7-17s5-5 12 2c6 6 9 14 7 17-3 3-9 2-12-2z"/><path d="m168 123c12-2 30-2 40 0 9 3-1 5-23 4-22 0-30-2-17-4z"/><path d="m111 91c-8-6-9-11-3-15 6-3 14-1 17 5 9 14 2 20-14 10z"/><path d="m168 83c12-2 30-2 40 0 9 3-1 5-23 4-22 0-30-2-17-4z"/></g></svg>