<svg height="48pt" preserveAspectRatio="xMidYMid meet" viewBox="0 0 48 48" width="48pt" xmlns="http://www.w3.org/2000/svg"><g transform="matrix(.1 0 0 -.1 0 48)"><path d="m227 474c-14-15-6-34 14-34 14 0 19 5 17 17-3 18-20 27-31 17z"/><path d="m164 436c-3-8-4-27-2-43 3-28 4-28 76-31l72-3v46c0 40-2 45-22 44-17-1-19-2-5-6 12-3 17-15 17-39v-34h-60-60v34c0 24 5 36 18 39 12 4 11 5-6 6-12 0-25-5-28-13z"/><path d="m64 407c-2-7-3-100-2-207l3-195h175 175v205 205l-40 2-40 1 35-6 35-7 3-192 2-193h-170-170l2 193 3 192 35 6 35 6-38 2c-22 0-40-4-43-12z"/><path d="m110 210v-160h130 130v160c0 146-2 160-17 159-11 0-13-3-5-6 9-3 12-44 12-154v-149h-120-120v149c0 110 3 151 13 154 7 3 5 6-5 6-16 1-18-13-18-159z"/><path d="m170 310c-11-7-12-12-3-21 8-8 14-6 22 10 12 22 5 27-19 11z"/><path d="m230 300c0-5 23-10 50-10 28 0 50 5 50 10 0 6-22 10-50 10-27 0-50-4-50-10z"/><path d="m172 255c-18-10-20-14-9-23 10-8 16-6 26 9 16 26 12 29-17 14z"/><path d="m230 240c0-5 23-10 50-10 28 0 50 5 50 10 0 6-22 10-50 10-27 0-50-4-50-10z"/><path d="m172 194c-16-8-20-14-12-19 7-4 19 0 28 9 21 20 13 26-16 10z"/><path d="m230 180c0-5 23-10 50-10 28 0 50 5 50 10 0 6-22 10-50 10-27 0-50-4-50-10z"/><path d="m176 134c-11-7-16-17-13-21 4-4 15 1 24 10 22 21 14 30-11 11z"/><path d="m248 123c18-2 45-2 60 0s0 4-33 4-45-2-27-4z"/></g></svg>