<svg height="420pt" preserveAspectRatio="xMidYMid meet" viewBox="0 0 512 420" width="512pt" xmlns="http://www.w3.org/2000/svg"><g transform="matrix(.1 0 0 -.1 0 420)"><path d="m1357 3672-447-448 2-1404 3-1405 26-55c33-70 89-126 159-159l55-26h1240 1240l56 26c71 33 125 87 158 158l26 56v1735 1735l-28 57c-32 65-89 121-156 152-46 21-50 21-966 24l-920 2zm460-459c-2-2-197-2-433-1l-429 3 430 434 430 433 3-432c1-238 1-435-1-437zm1843 852c65-23 125-77 157-143l28-57v-1720-1720l-21-46c-31-66-78-114-142-146l-57-28h-1230-1230l-57 28c-64 32-111 80-142 146l-21 46v1370 1370l448 5c383 4 449 7 457 20 6 9 10 194 10 453v437h879c759 0 884-2 921-15z"/><path d="m1674 2679-194-193-93 92c-55 53-103 92-114 92-27 0-53-31-53-61 0-35 226-259 261-259 31 0 459 426 459 456 0 27-20 50-48 59-21 6-48-17-218-186z"/><path d="m2133 2564c-15-24-15-29-2-53l15-26 659-3c602-2 660-1 677 14 23 22 23 56 0 77-17 15-78 17-675 17h-657z"/><path d="m1855 2069c-11-6-101-92-200-190l-180-179-90 90c-92 93-118 106-149 74-35-34-20-62 87-171 91-93 140-133 163-133 5 0 106 98 226 217 233 232 246 252 196 287-26 19-27 19-53 5z"/><path d="m2152 1794c-25-17-29-51-8-80 14-18 34-19 664-22l650-2 28 23c22 19 26 29 20 51-4 16-17 31-32 36-15 6-277 10-662 10-561 0-640-2-660-16z"/><path d="m1668 1103-187-187-89 87c-96 93-123 105-157 67-28-31-13-57 109-180 84-84 115-110 135-110 21 0 71 44 244 218 119 120 217 225 217 233 0 28-30 59-58 59-22 0-64-37-214-187z"/><path d="m2147 1002c-22-24-21-55 1-75 17-15 78-17 675-17h656l15 22c21 30 20 44-4 68-20 20-33 20-673 20-621 0-655-1-670-18z"/></g></svg>