<svg height="96pt" preserveAspectRatio="xMidYMid meet" viewBox="0 0 96 96" width="96pt" xmlns="http://www.w3.org/2000/svg"><g transform="matrix(.1 0 0 -.1 0 96)"><path d="m452 948c-34-34 6-90 48-68 35 19 20 80-20 80-9 0-21-5-28-12zm38-33c0-8-4-15-10-15-5 0-10 7-10 15s5 15 10 15c6 0 10-7 10-15z"/><path d="m330 811v-91h150 150v91 90l-42-3c-46-3-55-21-13-26 24-3 25-7 25-63v-59h-120-120v59c0 58 1 60 28 63 42 5 32 23-15 26l-43 3z"/><path d="m132 828c-9-9-12-113-12-404 0-344 2-395 16-408 13-14 59-16 344-16s331 2 344 16c14 13 16 64 16 408 0 291-3 395-12 404-17 17-151 16-146 0 3-8 28-14 66-16l62-3-2-387-3-387h-325-325l-3 387-2 387 62 3c38 2 63 8 66 16 5 16-129 17-146 0z"/><path d="m215 738c-3-7-4-153-3-323l3-310h265 265v320 320h-29c-34 0-46-20-16-28 20-5 20-12 20-296v-291h-240-240v291c0 284 0 291 20 296 12 3 19 11 17 17-5 16-56 20-62 4z"/><path d="m365 630c-11-13-25-18-37-14-24 7-24-18 1-40 18-17 20-16 45 17 39 51 31 81-9 37z"/><path d="m450 595c0-13 16-15 107-13 74 2 108 7 111 16s-23 12-107 12c-93 0-111-2-111-15z"/><path d="m363 511c-8-13-19-18-34-14-16 5-20 2-18-12 2-10 12-23 22-29 14-9 22-6 42 19 13 17 24 36 25 43 0 19-24 14-37-7z"/><path d="m457 494c-19-19 2-24 104-24 84 0 110 3 107 13-5 13-198 23-211 11z"/><path d="m367 400c-11-16-21-20-36-15-25 8-28-10-6-39 14-19 15-19 36 0 30 27 43 54 31 66-6 6-15 2-25-12z"/><path d="m450 365c0-13 18-15 111-15 84 0 110 3 107 13-3 8-37 13-111 15-91 2-107 0-107-13z"/><path d="m366 281c-10-11-25-17-37-14-25 7-25-18 0-41 18-17 20-16 45 17 38 50 31 82-8 38z"/><path d="m450 245c0-13 16-15 107-13 74 2 108 7 111 16s-23 12-107 12c-93 0-111-2-111-15z"/></g></svg>