<svg id="line_color" height="512" viewBox="0 0 74 74" width="512" xmlns="http://www.w3.org/2000/svg" data-name="line color"><g fill="#fcd462"><path d="m60.681 39.106-4.156 4.145v24.849a3.865 3.865 0 0 1 -2.8 3.633 3.574 3.574 0 0 1 -3.135-.867 3.616 3.616 0 0 1 -1.1-2.347l-1.377-23.784c-13.727-3.958-19.122-13.647-20.782-18.212a37.347 37.347 0 0 1 -5.172.383c-5.092 0-9.146-1.261-12.115-3.783a13.1 13.1 0 0 1 -4.029-6.135 2.39 2.39 0 0 1 2.233-3.088 2.362 2.362 0 0 1 2.322 1.639 8.424 8.424 0 0 0 2.65 4c2.81 2.347 7.343 3.113 13.441 2.251.574-.08 1.133-.175 1.675-.271a6.756 6.756 0 0 0 3.512.973 7 7 0 0 0 6.369-4.092 34.108 34.108 0 0 0 13.845-12.114 2.436 2.436 0 0 1 3.21-.761 2.378 2.378 0 0 1 .816 3.382 38.352 38.352 0 0 1 -14.695 13.274 24.838 24.838 0 0 0 9.881 10.663l3.465-2.844a15.559 15.559 0 0 0 5.043-16.49 2.875 2.875 0 0 1 5.442-1.852l1.07 3.087a23.523 23.523 0 0 1 -5.613 24.361z"/><path d="m60.681 39.106-4.156 4.145v24.849a3.865 3.865 0 0 1 -2.8 3.633 3.574 3.574 0 0 1 -3.135-.867 3.616 3.616 0 0 1 -1.1-2.347l-1.377-23.784c-13.727-3.958-19.122-13.647-20.782-18.212a37.347 37.347 0 0 1 -5.172.383c-5.092 0-9.146-1.261-12.115-3.783a13.1 13.1 0 0 1 -4.029-6.135 2.39 2.39 0 0 1 2.233-3.088 2.362 2.362 0 0 1 2.322 1.639 8.424 8.424 0 0 0 2.65 4c2.81 2.347 7.343 3.113 13.441 2.251.574-.08 1.133-.175 1.675-.271a6.756 6.756 0 0 0 3.512.973 7 7 0 0 0 6.369-4.092 34.108 34.108 0 0 0 13.845-12.114 2.436 2.436 0 0 1 3.21-.761 2.378 2.378 0 0 1 .816 3.382 38.352 38.352 0 0 1 -14.695 13.274 24.838 24.838 0 0 0 9.881 10.663l3.465-2.844a15.559 15.559 0 0 0 5.043-16.49 2.875 2.875 0 0 1 5.442-1.852l1.07 3.087a23.523 23.523 0 0 1 -5.613 24.361z"/><path d="m60.681 39.106-4.156 4.145v24.849a3.865 3.865 0 0 1 -2.8 3.633 3.574 3.574 0 0 1 -3.135-.867 3.616 3.616 0 0 1 -1.1-2.347l-1.377-23.784c-13.727-3.958-19.122-13.647-20.782-18.212a37.347 37.347 0 0 1 -5.172.383c-5.092 0-9.146-1.261-12.115-3.783a13.1 13.1 0 0 1 -4.029-6.135 2.39 2.39 0 0 1 2.233-3.088 2.362 2.362 0 0 1 2.322 1.639 8.424 8.424 0 0 0 2.65 4c2.81 2.347 7.343 3.113 13.441 2.251.574-.08 1.133-.175 1.675-.271a6.756 6.756 0 0 0 3.512.973 7 7 0 0 0 6.369-4.092 34.108 34.108 0 0 0 13.845-12.114 2.436 2.436 0 0 1 3.21-.761 2.378 2.378 0 0 1 .816 3.382 38.352 38.352 0 0 1 -14.695 13.274 24.838 24.838 0 0 0 9.881 10.663l3.465-2.844a15.559 15.559 0 0 0 5.043-16.49 2.875 2.875 0 0 1 5.442-1.852l1.07 3.087a23.523 23.523 0 0 1 -5.613 24.361z"/></g><path d="m41.39 22.18c1.45 2.91 5.92 7.857 10.21 10.758l-1.4 1.593c-4.418-2.479-8.483-7.762-10.586-11.08a1.839 1.839 0 0 1 .656-2.577 37.372 37.372 0 0 0 13.06-11.974 2.391 2.391 0 0 0 .4-1.31 2.361 2.361 0 0 0 -1.05-1.96 2.444 2.444 0 0 1 2.59-.11 2.365 2.365 0 0 1 .81 3.38 38.347 38.347 0 0 1 -14.69 13.28z" fill="#f7be56"/><path d="m60.68 39.1-4.16 4.15v24.84a3.873 3.873 0 0 1 -2.8 3.64 3.59 3.59 0 0 1 -2.12-.22 4 4 0 0 0 2.17-3.42v-24.84l4.16-4.15a23.546 23.546 0 0 0 5.61-24.36l-1.07-3.08a2.805 2.805 0 0 0 -1.33-1.55.906.906 0 0 1 .22-.11 2.881 2.881 0 0 1 3.86 1.66l1.07 3.08a23.546 23.546 0 0 1 -5.61 24.36z" fill="#f7be56"/><circle cx="30.66" cy="12.11" fill="#fcd462" r="6.912"/><path d="m30.66 5.2a6.907 6.907 0 0 0 -6.13 3.727 6.9 6.9 0 0 1 10.761 8.306 6.9 6.9 0 0 0 -4.631-12.033z" fill="#f7be56"/><g fill="#323c6b"><path d="m45.945 59.75a.5.5 0 0 1 -.5-.471l-.612-10.625a.5.5 0 0 1 .471-.528.482.482 0 0 1 .527.47l.612 10.625a.5.5 0 0 1 -.47.528z"/><path d="m43.75 47.147a.492.492 0 0 1 -.2-.043q-.974-.435-1.88-.905a.5.5 0 0 1 .459-.889q.883.457 1.829.881a.5.5 0 0 1 -.2.956z"/><path d="m53 72.307a4.086 4.086 0 0 1 -2.743-1.071 4.152 4.152 0 0 1 -1.266-2.683l-1.356-23.437c-14.114-4.208-19.228-14.416-20.635-18.044-7.451.978-13.341-.219-17.282-3.568a13.682 13.682 0 0 1 -4.183-6.367 2.891 2.891 0 0 1 5.51-1.751 7.954 7.954 0 0 0 2.493 3.761c2.707 2.262 7.1 2.982 13.049 2.14.57-.079 1.123-.174 1.659-.268a.5.5 0 0 1 .347.064 6.243 6.243 0 0 0 3.253.9 6.513 6.513 0 0 0 5.913-3.794.5.5 0 0 1 .241-.242 33.547 33.547 0 0 0 13.646-11.938 2.947 2.947 0 0 1 3.877-.917 2.894 2.894 0 0 1 1.384 1.85 2.848 2.848 0 0 1 -.4 2.24 38.809 38.809 0 0 1 -14.443 13.218 24.343 24.343 0 0 0 9.159 9.843l3.2-2.622a15.019 15.019 0 0 0 4.88-15.96 3.379 3.379 0 0 1 1.855-4.112 3.43 3.43 0 0 1 1.354-.282 3.368 3.368 0 0 1 3.188 2.233l1.071 3.088a24.156 24.156 0 0 1 -5.733 24.874l-4.009 4v24.638a4.377 4.377 0 0 1 -3.2 4.123 4.083 4.083 0 0 1 -.829.084zm-25.669-46.285a.5.5 0 0 1 .47.33c1.144 3.146 6 13.735 20.451 17.9a.5.5 0 0 1 .36.452l1.372 23.786a3.136 3.136 0 0 0 .952 2.017 3.066 3.066 0 0 0 2.684.735 3.366 3.366 0 0 0 2.405-3.142v-24.849a.5.5 0 0 1 .147-.354l4.155-4.146a23.15 23.15 0 0 0 5.494-23.838l-1.069-3.087a2.368 2.368 0 0 0 -2.241-1.563 2.365 2.365 0 0 0 -2.254 3.1 16.021 16.021 0 0 1 -5.2 17.029l-3.466 2.84a.5.5 0 0 1 -.563.05 25.389 25.389 0 0 1 -10.082-10.877.5.5 0 0 1 .22-.669 37.8 37.8 0 0 0 14.5-13.1 1.857 1.857 0 0 0 .264-1.461 1.9 1.9 0 0 0 -.913-1.214 1.93 1.93 0 0 0 -2.542.6 34.526 34.526 0 0 1 -13.882 12.21 7.516 7.516 0 0 1 -6.744 4.213 7.258 7.258 0 0 1 -3.608-.949c-.491.086-1 .171-1.512.242-6.245.884-10.9.088-13.829-2.362a8.943 8.943 0 0 1 -2.807-4.233 1.892 1.892 0 0 0 -3.332-.5 1.861 1.861 0 0 0 -.268 1.653 12.683 12.683 0 0 0 3.874 5.9c3.786 3.214 9.562 4.315 16.9 3.285a.547.547 0 0 1 .064.002z"/><path d="m30.66 19.522a7.412 7.412 0 1 1 7.412-7.412 7.42 7.42 0 0 1 -7.412 7.412zm0-13.824a6.412 6.412 0 1 0 6.412 6.412 6.419 6.419 0 0 0 -6.412-6.41z"/></g><path d="m47.7 34.668a.645.645 0 0 1 -.355-.106 24.694 24.694 0 0 1 -6.108-5.747.651.651 0 0 1 1.036-.787 23.4 23.4 0 0 0 5.785 5.447.65.65 0 0 1 -.358 1.193z" fill="#fff"/><path d="m40.16 26.747a.65.65 0 0 1 -.551-.3c-.275-.434-.275-.469-.505-.878a.65.65 0 0 1 1.133-.637c.22.391.209.406.471.821a.649.649 0 0 1 -.2.9.64.64 0 0 1 -.348.094z" fill="#fff"/><path d="m70.375 27.313a.512.512 0 0 1 -.087-.008.5.5 0 0 1 -.406-.578 22.871 22.871 0 0 0 -.39-9.761.5.5 0 0 1 .969-.252 23.862 23.862 0 0 1 .405 10.186.5.5 0 0 1 -.491.413z" fill="#323c6b"/><path d="m69.53 30.682a.514.514 0 0 1 -.162-.027.5.5 0 0 1 -.31-.634q.1-.3.193-.6a.5.5 0 0 1 .957.289c-.064.213-.133.425-.2.637a.5.5 0 0 1 -.478.335z" fill="#323c6b"/></svg>