<svg height="128pt" preserveAspectRatio="xMidYMid meet" viewBox="0 0 128 128" width="128pt" xmlns="http://www.w3.org/2000/svg"><g transform="matrix(.1 0 0 -.1 0 128)"><path d="m490 1254c-191-28-225-39-201-68 9-11 1-14-40-19-61-7-93-26-120-70-19-31-19-50-17-535l3-504 28-24c38-33 59-32 534 25 431 51 436 52 473 114 19 31 20 54 20 520 0 416-2 492-15 517-28 54-61 59-229 39-83-11-96-10-117 5-29 20-179 20-319 0zm315-57c46-45 65-94 65-164 0-36-3-43-22-48-31-6-362-44-365-41-2 1-9 37-17 79-17 85-27 110-64 149l-25 27 25 6c78 20 185 33 267 34l94 1zm257-36 33-29v-446-445l-29-30c-16-17-37-33-45-36-32-10-673-85-726-85-43 0-60 5-82 24l-28 24-3 431c-2 386-1 435 14 467 21 44 61 65 135 71l57 6 16-53c9-30 16-77 16-106s3-55 8-57c4-3 113 8 242 24 129 15 241 28 248 29 17 0 16 92-3 163-8 32-15 60-15 62 0 4 48 10 102 13 18 1 39-8 60-27z"/><path d="m527 798c-34-41-36-42-55-25-17 15-21 16-31 3-11-13-8-23 16-55 15-23 33-41 38-41 16 0 97 130 91 146-9 23-22 16-59-28z"/><path d="m528 608c-35-42-36-43-56-25-19 18-21 18-30 1-8-14-4-27 16-56 15-21 32-38 38-38 18 0 97 128 90 145-9 23-19 18-58-27z"/><path d="m536 425c-36-44-39-45-56-30-19 17-40 13-40-6 0-13 52-88 61-89 3 0 27 32 53 71 41 62 46 73 34 86-13 12-20 8-52-32z"/></g></svg>