<svg id="Capa_1" enable-background="new 0 0 401.487 401.487" height="512" viewBox="0 0 401.487 401.487" width="512" xmlns="http://www.w3.org/2000/svg"><g><path d="m361.69 127.058c-.447-2.686 0-11.616 0-11.616s-3.133-5.808-5.808-6.703c-2.685-.895-23.679-4.465-42.892-6.037-19.214-1.562-93.394 3.351-93.394 3.351-14.569-3.541-29.47-6.044-32.802-6.589v31.611h87.216c27.155 0 41.654-12.064 47.014-12.511 5.36-.448 10.283.447 12.063 3.133 1.79 2.674 10.283 11.616 20.109 12.063 9.837.448 8.942-4.017 8.494-6.702z" fill="#f7be56"/><path d="m203.338 293.292c9.691-5.033 12.405-15.609 15.503-25.281 4.31-13.459 4.483-23.13-10.091-29.667-19.971-8.957-46.556-15.957-68.564-16.325-6.745-.113-9.219-6.764-7.447-11.61h-68.019c-17.258 42.208 49.108 59.689 74.03 56.185 25.469-3.57 49.596 3.133 49.596 3.133-14.291 16.081-38.428 78.635-38.428 78.635l24.585 4.923 6.693-11.626c2.651-9.79 11.262-22.406 20.901-35.427-3.667-3.507-4.519-9.949 1.241-12.94z" fill="#fcd462"/><path d="m197.6 300.963c5.006-8.754 11.964-16.104 17.025-25.065 2.569-4.55 7.378-10.286 8.615-15.51 3.732-15.756-2.847-15.41-12.545-19.827-24.756-11.275-56.272-18.305-83.541-19.522-6.187-.276-8.763-5.982-7.764-10.63h-54.67c-17.258 42.208 49.108 59.689 74.03 56.185 25.469-3.57 49.596 3.133 49.596 3.133-14.291 16.081-38.428 78.635-38.428 78.635l24.585 4.923 6.693-11.626c2.352-8.687 9.403-19.601 17.692-31.045-2.357-2.349-3.424-5.914-1.288-9.651z" fill="#f7be56"/><path d="m133.248 210.409h-68.528c-17.258 42.208 49.108 59.689 74.03 56.185 25.469-3.57 49.596 3.133 49.596 3.133-5.814 6.543-13.258 20.778-20.044 35.364 7.753 5.179 17.375 7.819 28.536 8.367 6.39-8.597 19.265-25.706 25.022-33.905 14.749-21.004 14.301-31.277 6.703-44.235-2.997-5.112-15.448-10.362-29.428-14.847-21.275-6.825-43.544-10.062-65.887-10.062z" fill="#474c5b"/><path d="m204.858 370.192c-7.778-.62-17.58-13.095-20.366-21.199-.729-2.121-2.879-3.434-5.055-2.891-4.844 1.21-13.487 1.786-24.546-4.109-2.259-1.204-5.069-.105-6.025 2.27l-7.716 19.176s-2.59 7.442 11.373 14c13.963 6.557 22.566-.309 34.143 3.853s33.517 3.551 37.575-2.509c4.059-6.06-9.913-7.836-19.383-8.591z" fill="#d5d6db"/><path d="m224.233 378.786c-4.058 6.059-25.935 8.962-37.513 4.794-11.578-4.167-20.239.415-34.198-6.151-13.971-6.547-11.372-13.984-11.372-13.984l.706-1.774c.186 2.639 2.007 7.552 11.549 12.042 13.959 6.565 22.62 1.983 34.179 6.138 11.214 4.031 32.08 1.441 37.099-4.215.449.889.366 1.931-.45 3.15z" fill="#474c5b"/><path d="m186.169 101.486s-1.366-15.298 4.056-15.011c0 0 5.973 7.022 13.394 3.789 0 0 5.28-.446 4.159-6.668 0 0-.104-1.456 2.445-1.683 0 0 1.78-2.806.172-3.253 0 0 1.894-1.531.952-4.3-.941-2.769 1.466-3.729 3.616-3.253s3.587-2.71.325-6.145-5.893-8.525-3.977-13.923c1.917-5.399 3.755-16.177-3.825-23.646-7.58-7.47-26.784-21.354-41.694-10.179s-20.544 21.755-16.885 38.26 8.206 19.645 8.206 19.645.367 17.057-3.963 23.535z" fill="#fcd462"/><path d="m203.682 20.485c-4.489-4.225-9.578-7.394-22.164-9.328 0 0 1.705-8.248-13.031-10.658-14.735-2.41-25.059 4.295-26.725 11.819-1.666 7.525-5.179 15.677.528 20.872l2.729 3.226s-2.667 12.728-.013 17.399c2.653 4.672 4.657 8.235 4.705 17.287.014 2.668 4.974 5.338 7.4 4.016 0 0-2.213-16.43 10.184-21.212 6.021-2.322 10.736-1.764 13.992-.575 1.995.728 4.046-.924 3.811-3.034-.872-7.811 1.149-20.448 22.387-22.904 0-.001.686-2.683-3.803-6.908z" fill="#4d5c7d"/><path d="m363.518 131.52c-.447-2.685 0-11.616 0-11.616s-3.133-5.808-5.808-6.703c-2.685-.895-23.679-4.465-42.892-6.037-19.214-1.562-93.394 3.351-93.394 3.351-16.528-4.017-33.504-6.703-33.504-6.703l-.447-16.528s-2.964-1.852-6.402-3.913h-20.512c-.625 3.43-2.431 6.787-4.175 9.377-1.925 2.883-3.768 4.809-3.768 4.809-22.784 8.941-45.13 44.235-45.13 44.235-16.591 49.086-34.577 44.027-51.979 61.576-4.621 4.653-4.452 12.158-8.948 21.441-21.452 44.246 44.839 57.205 70.308 53.625 25.469-3.57 50.05 6.554 50.05 6.554-5.725 6.442-15.714 21.031-22.414 35.379-10.026 21.47-18.698 43.945-18.698 43.945l24.585 4.923 6.692-11.626c2.654-9.801 11.282-22.434 20.934-35.472-4.785-1.452-8.307-6.407-4.572-11.51 7.243-9.896 19.513-19.567 24.159-30.803 7.112-17.199-5.082-22.196-18.449-25.035-19.739-4.192-37.251-7.062-54.071-19.482-5.03-3.714-5.878-13.898 1.982-15.163 2.039-.329 4.085-.559 6.133-.732 8.817-9.505 27.762-30.219 36.843-42.356 12.074-16.122 7.15-41.519 7.15-41.519s71.495 0 98.65 0 41.654-12.063 47.014-12.511 10.284.447 12.063 3.133c1.79 2.675 10.283 11.616 20.109 12.063 9.834.448 8.939-4.017 8.491-6.702z" fill="#fcd462"/><path d="m128.488 224.455s5.747-31.262 17.81-47.384c2.164-2.889 2.38-.293 3.579-3.579l-37.129 7.157c-13.244 22.048-43.781 9.144-57.243 22.719-4.621 4.652-9.201 10.908-13.697 20.192-21.452 44.246 47.358 62.564 72.827 58.984 25.469-3.57 49.596 3.133 49.596 3.133-5.814 6.543-13.258 20.778-20.044 35.364 7.753 5.179 17.375 7.818 28.536 8.367 6.39-8.596 19.265-25.706 25.022-33.905 14.749-21.004 14.301-31.277 6.703-44.235-7.598-12.959-75.96-26.813-75.96-26.813z" fill="#4d5c7d"/><path d="m170.038 177.056c-12.063 16.123-41.55 47.4-41.55 47.4s-56.465 6.776-72.983-21.087c17.403-17.548 35.388-12.49 51.979-61.576 0 0 22.347-35.294 45.13-44.235 0 0 .934-1.926 2.86-4.809l7.861 13.427s-11.845-2.81-17.767 0c-5.922 2.8-23.679 21.181-23.367 29.289.312 8.098 9.659 22.43 29.289 11.834s25.698-11.761 25.698-11.761 4.923 25.395-7.15 41.518z" fill="#44c4a1"/><path d="m180.743 386.141c-7.778-.62-17.58-13.095-20.366-21.199-.729-2.121-2.879-3.434-5.055-2.891-4.844 1.21-13.487 1.786-24.546-4.109-2.259-1.204-5.069-.105-6.025 2.27l-7.716 19.176s-2.185 5.861 11.778 12.419c13.963 6.557 22.616 1.978 34.192 6.139 11.577 4.162 33.063 2.846 37.121-3.215 4.059-6.059-9.914-7.835-19.383-8.59z" fill="#ebf0f3"/><path d="m200.118 394.735c-4.058 6.059-25.935 8.962-37.513 4.794-11.578-4.167-20.238.415-34.198-6.151-13.972-6.547-11.373-13.984-11.373-13.984l.706-1.774c.186 2.639 2.007 7.552 11.549 12.042 13.959 6.565 22.62 1.983 34.179 6.138 11.214 4.031 32.08 1.441 37.099-4.215.449.889.367 1.931-.449 3.15z" fill="#4d5c7d"/></g></svg>